<svg width="84" height="103" viewBox="0 0 84 103" fill="none" xmlns="http://www.w3.org/2000/svg">
<g clip-path="url(#clip0_429_1170)">
<path d="M0 0.5H12.2957V102.428H0" fill="#ED1C24"/>
<path d="M27.1401 65.4496H38.2084L42.0101 69.5079H27.1401V65.4496Z" fill="#EC1C24"/>
<path d="M26.8801 0.631454L47.4185 0.580566L48.8974 0.631454L50.7471 0.779876L52.6138 1.03855L54.4806 1.39901L56.2535 1.84004L58.0819 2.38284L59.8464 3.01893L61.5383 3.74832L63.388 4.67278L64.8286 5.48274L66.4524 6.5217L67.4071 7.20868L68.3703 7.92959L69.4869 8.82012L70.3478 9.59616L72.1421 11.3518L73.361 12.6791L74.3498 13.8962L75.2917 15.1641L75.7434 15.7917L76.3742 16.7628L77.0519 17.912L77.64 18.934L78.5819 20.8847L79.2382 22.4453L79.9202 24.2645L80.4103 25.9268L80.9217 28.0048L81.2499 29.7773L81.5653 32.4277L81.642 34.1918V35.9475L81.5653 37.6776L81.3436 39.7089L81.0538 41.4815L80.8109 42.6477L80.5168 43.8223L80.1247 45.1836L79.6559 46.6296L79.0763 48.1605L78.2367 50.0221L77.5761 51.324L76.9538 52.4096L76.5021 53.1772L75.9992 53.9532L75.4835 54.6826L74.8655 55.5689L74.1623 56.4764L73.1863 57.6553L72.0909 58.8554L71.051 59.8858L70.2967 60.5898L69.5039 61.3065L68.8391 61.8365L67.8801 62.6041L67.2877 63.0197L66.7209 63.4268L66.056 63.872L65.4892 64.2325L64.6965 64.7329L63.7332 65.2715L63.0002 65.6616L61.3593 66.4673L60.0296 67.0398L58.474 67.6123L56.9141 68.1169L55.6909 68.4519L53.854 68.8633L53.6026 68.9311L51.804 69.1728L51.1733 69.3213H50.8366L49.8521 66.3698L51.2585 65.2418L53.3256 64.8219L53.918 64.7032L55.3756 64.3088L57.2125 63.7279L58.9002 63.079L60.0893 62.5574L62.0413 61.5524L63.5244 60.6916L64.3427 60.064L66.1327 58.779L67.667 57.4856L68.9158 56.2643L69.2226 55.959L70.1262 55.0006L70.5524 54.4324L71.2172 53.6436L71.7798 52.8549L72.2401 52.2442L72.8751 51.2265L73.1863 50.7727L73.8767 49.5514L74.7419 47.8467L75.4835 46.0911L76.1228 44.4669L76.5575 42.813L76.9666 41.1083L77.0433 40.6503L77.2479 39.4036L77.3246 38.7929L77.4525 37.6776L77.5036 36.9695L77.5548 35.9475V35.0824V34.1918L77.5292 33.208L77.4525 32.4617L77.3246 31.3464L77.2479 30.7315L76.9666 29.031L76.566 27.3856L76.1228 25.8548L75.5218 24.0482L74.8314 22.4453L74.0301 20.872L73.1863 19.3666L72.2529 17.8569L71.7798 17.2844L71.2172 16.4957L70.5524 15.6645L70.0921 15.1005L69.5295 14.5365L68.9414 13.9046L67.7438 12.73L66.6484 11.7843L66.1327 11.3603L65.3187 10.7284L64.982 10.44L64.3427 10.0669L63.5244 9.47742L62.0413 8.58689L60.4814 7.77268L58.9002 7.0645L57.5193 6.53018L56.5306 6.19093L55.6057 5.89408L54.4806 5.58876L53.918 5.43609L52.307 5.12653L51.169 4.95266L50.1675 4.8212L48.7567 4.69822L26.8801 4.59645V0.707785V0.631454Z" fill="#231F20"/>
<path d="M15.3814 27.6316H16.9114L47.964 60.9121H40.9574L15.3814 33.4964" fill="#EC1C24"/>
<path d="M51.8808 65.1146H44.8826L79.69 102.428H81.9574V97.3519L51.8936 65.1782" fill="#231F20"/>
</g>
<defs>
<clipPath id="clip0_429_1170">
<rect width="84" height="102" fill="white" transform="translate(0 0.5)"/>
</clipPath>
</defs>
</svg>
